<svg id="visual" viewBox="0 0 960 540" width="960" height="540" xmlns="http://www.w3.org/2000/svg" xmlns:xlink="http://www.w3.org/1999/xlink" version="1.1"><rect x="0" y="0" width="960" height="540" fill="#387376"></rect><path d="M0 496L80 498C160 500 320 504 480 505.5C640 507 800 506 880 505.5L960 505L960 541L880 541C800 541 640 541 480 541C320 541 160 541 80 541L0 541Z" fill="#387376"></path><path d="M0 527L80 524.8C160 522.7 320 518.3 480 516.2C640 514 800 514 880 514L960 514L960 541L880 541C800 541 640 541 480 541C320 541 160 541 80 541L0 541Z" fill="#387376"></path></svg>