<svg id="visual" viewBox="0 0 900 600" width="900" height="600" xmlns="http://www.w3.org/2000/svg" xmlns:xlink="http://www.w3.org/1999/xlink" version="1.1"><rect x="0" y="0" width="900" height="600" fill="#387376"></rect><path d="M0 432L129 406L257 365L386 350L514 411L643 360L771 400L900 363L900 601L771 601L643 601L514 601L386 601L257 601L129 601L0 601Z" fill="#762c37"></path><path d="M0 440L129 449L257 442L386 395L514 470L643 450L771 465L900 405L900 601L771 601L643 601L514 601L386 601L257 601L129 601L0 601Z" fill="#923d46"></path><path d="M0 439L129 504L257 508L386 505L514 468L643 444L771 486L900 437L900 601L771 601L643 601L514 601L386 601L257 601L129 601L0 601Z" fill="#af4f56"></path><path d="M0 522L129 492L257 501L386 498L514 519L643 521L771 513L900 521L900 601L771 601L643 601L514 601L386 601L257 601L129 601L0 601Z" fill="#cd6266"></path><path d="M0 526L129 548L257 538L386 542L514 539L643 549L771 551L900 560L900 601L771 601L643 601L514 601L386 601L257 601L129 601L0 601Z" fill="#ec7575"></path></svg>