<svg id="visual" viewBox="0 0 900 800" width="900" height="800" xmlns="http://www.w3.org/2000/svg" xmlns:xlink="http://www.w3.org/1999/xlink" version="1.1"><rect x="0" y="0" width="900" height="800" fill="#24393a"></rect><path d="M0 573L25 575.7C50 578.3 100 583.7 150 585.2C200 586.7 250 584.3 300 586C350 587.7 400 593.3 450 587.5C500 581.7 550 564.3 600 559.5C650 554.7 700 562.3 750 565.5C800 568.7 850 567.3 875 566.7L900 566L900 801L875 801C850 801 800 801 750 801C700 801 650 801 600 801C550 801 500 801 450 801C400 801 350 801 300 801C250 801 200 801 150 801C100 801 50 801 25 801L0 801Z" fill="#b3e2c8"></path><path d="M0 591L25 592.5C50 594 100 597 150 605.2C200 613.3 250 626.7 300 625.3C350 624 400 608 450 608.5C500 609 550 626 600 635.2C650 644.3 700 645.7 750 639C800 632.3 850 617.7 875 610.3L900 603L900 801L875 801C850 801 800 801 750 801C700 801 650 801 600 801C550 801 500 801 450 801C400 801 350 801 300 801C250 801 200 801 150 801C100 801 50 801 25 801L0 801Z" fill="#91c6b3"></path><path d="M0 651L25 650.2C50 649.3 100 647.7 150 644.8C200 642 250 638 300 641.3C350 644.7 400 655.3 450 657.7C500 660 550 654 600 655.3C650 656.7 700 665.3 750 667.3C800 669.3 850 664.7 875 662.3L900 660L900 801L875 801C850 801 800 801 750 801C700 801 650 801 600 801C550 801 500 801 450 801C400 801 350 801 300 801C250 801 200 801 150 801C100 801 50 801 25 801L0 801Z" fill="#72aa9f"></path><path d="M0 681L25 687.3C50 693.7 100 706.3 150 709.7C200 713 250 707 300 703.3C350 699.7 400 698.3 450 700C500 701.7 550 706.3 600 705.5C650 704.7 700 698.3 750 697.8C800 697.3 850 702.7 875 705.3L900 708L900 801L875 801C850 801 800 801 750 801C700 801 650 801 600 801C550 801 500 801 450 801C400 801 350 801 300 801C250 801 200 801 150 801C100 801 50 801 25 801L0 801Z" fill="#548e8b"></path><path d="M0 748L25 750C50 752 100 756 150 758.2C200 760.3 250 760.7 300 759.2C350 757.7 400 754.3 450 753.3C500 752.3 550 753.7 600 751.2C650 748.7 700 742.3 750 743.3C800 744.3 850 752.7 875 756.8L900 761L900 801L875 801C850 801 800 801 750 801C700 801 650 801 600 801C550 801 500 801 450 801C400 801 350 801 300 801C250 801 200 801 150 801C100 801 50 801 25 801L0 801Z" fill="#387376"></path></svg>