<svg id="visual" viewBox="0 0 960 540" width="960" height="540" xmlns="http://www.w3.org/2000/svg" xmlns:xlink="http://www.w3.org/1999/xlink" version="1.1"><rect x="0" y="0" width="960" height="540" fill="#001220"></rect><path d="M0 378L12.3 381C24.7 384 49.3 390 74 387.7C98.7 385.3 123.3 374.7 148 373.3C172.7 372 197.3 380 221.8 385.5C246.3 391 270.7 394 295.2 388.7C319.7 383.3 344.3 369.7 369 364.5C393.7 359.3 418.3 362.7 443 362.8C467.7 363 492.3 360 517 363.5C541.7 367 566.3 377 591 382.5C615.7 388 640.3 389 664.8 390.7C689.3 392.3 713.7 394.7 738.2 398C762.7 401.3 787.3 405.7 812 403.7C836.7 401.7 861.3 393.3 886 390C910.7 386.7 935.3 388.3 947.7 389.2L960 390L960 541L947.7 541C935.3 541 910.7 541 886 541C861.3 541 836.7 541 812 541C787.3 541 762.7 541 738.2 541C713.7 541 689.3 541 664.8 541C640.3 541 615.7 541 591 541C566.3 541 541.7 541 517 541C492.3 541 467.7 541 443 541C418.3 541 393.7 541 369 541C344.3 541 319.7 541 295.2 541C270.7 541 246.3 541 221.8 541C197.3 541 172.7 541 148 541C123.3 541 98.7 541 74 541C49.3 541 24.7 541 12.3 541L0 541Z" fill="#0066ff"></path><path d="M0 451L12.3 448C24.7 445 49.3 439 74 435.8C98.7 432.7 123.3 432.3 148 432.2C172.7 432 197.3 432 221.8 427.8C246.3 423.7 270.7 415.3 295.2 416C319.7 416.7 344.3 426.3 369 430.8C393.7 435.3 418.3 434.7 443 434.2C467.7 433.7 492.3 433.3 517 433.3C541.7 433.3 566.3 433.7 591 437.3C615.7 441 640.3 448 664.8 448.7C689.3 449.3 713.7 443.7 738.2 434.7C762.7 425.7 787.3 413.3 812 411.2C836.7 409 861.3 417 886 421C910.7 425 935.3 425 947.7 425L960 425L960 541L947.7 541C935.3 541 910.7 541 886 541C861.3 541 836.7 541 812 541C787.3 541 762.7 541 738.2 541C713.7 541 689.3 541 664.8 541C640.3 541 615.7 541 591 541C566.3 541 541.7 541 517 541C492.3 541 467.7 541 443 541C418.3 541 393.7 541 369 541C344.3 541 319.7 541 295.2 541C270.7 541 246.3 541 221.8 541C197.3 541 172.7 541 148 541C123.3 541 98.7 541 74 541C49.3 541 24.7 541 12.3 541L0 541Z" fill="#496dec"></path><path d="M0 469L12.3 471C24.7 473 49.3 477 74 474.3C98.7 471.7 123.3 462.3 148 463.3C172.7 464.3 197.3 475.7 221.8 477C246.3 478.3 270.7 469.7 295.2 470.5C319.7 471.3 344.3 481.7 369 484.8C393.7 488 418.3 484 443 479.3C467.7 474.7 492.3 469.3 517 467C541.7 464.7 566.3 465.3 591 467.7C615.7 470 640.3 474 664.8 473.7C689.3 473.3 713.7 468.7 738.2 470.8C762.7 473 787.3 482 812 485.2C836.7 488.3 861.3 485.7 886 480.2C910.7 474.7 935.3 466.3 947.7 462.2L960 458L960 541L947.7 541C935.3 541 910.7 541 886 541C861.3 541 836.7 541 812 541C787.3 541 762.7 541 738.2 541C713.7 541 689.3 541 664.8 541C640.3 541 615.7 541 591 541C566.3 541 541.7 541 517 541C492.3 541 467.7 541 443 541C418.3 541 393.7 541 369 541C344.3 541 319.7 541 295.2 541C270.7 541 246.3 541 221.8 541C197.3 541 172.7 541 148 541C123.3 541 98.7 541 74 541C49.3 541 24.7 541 12.3 541L0 541Z" fill="#6375d9"></path></svg>