<svg id="visual" viewBox="0 0 960 540" width="960" height="540" xmlns="http://www.w3.org/2000/svg" xmlns:xlink="http://www.w3.org/1999/xlink" version="1.1"><rect x="0" y="0" width="960" height="540" fill="#6e57ab"></rect><path d="M0 358L17.8 355C35.7 352 71.3 346 106.8 344.3C142.3 342.7 177.7 345.3 213.2 349.8C248.7 354.3 284.3 360.7 320 361.2C355.7 361.7 391.3 356.3 426.8 353C462.3 349.7 497.7 348.3 533.2 349.5C568.7 350.7 604.3 354.3 640 353.5C675.7 352.7 711.3 347.3 746.8 349C782.3 350.7 817.7 359.3 853.2 361C888.7 362.7 924.3 357.3 942.2 354.7L960 352L960 541L942.2 541C924.3 541 888.7 541 853.2 541C817.7 541 782.3 541 746.8 541C711.3 541 675.7 541 640 541C604.3 541 568.7 541 533.2 541C497.7 541 462.3 541 426.8 541C391.3 541 355.7 541 320 541C284.3 541 248.7 541 213.2 541C177.7 541 142.3 541 106.8 541C71.3 541 35.7 541 17.8 541L0 541Z" fill="#d59ec8"></path><path d="M0 373L17.8 375.3C35.7 377.7 71.3 382.3 106.8 383.7C142.3 385 177.7 383 213.2 380.8C248.7 378.7 284.3 376.3 320 381C355.7 385.7 391.3 397.3 426.8 397.3C462.3 397.3 497.7 385.7 533.2 384.5C568.7 383.3 604.3 392.7 640 398C675.7 403.3 711.3 404.7 746.8 400.2C782.3 395.7 817.7 385.3 853.2 383.7C888.7 382 924.3 389 942.2 392.5L960 396L960 541L942.2 541C924.3 541 888.7 541 853.2 541C817.7 541 782.3 541 746.8 541C711.3 541 675.7 541 640 541C604.3 541 568.7 541 533.2 541C497.7 541 462.3 541 426.8 541C391.3 541 355.7 541 320 541C284.3 541 248.7 541 213.2 541C177.7 541 142.3 541 106.8 541C71.3 541 35.7 541 17.8 541L0 541Z" fill="#9289b4"></path><path d="M0 445L17.8 440C35.7 435 71.3 425 106.8 421.5C142.3 418 177.7 421 213.2 424.5C248.7 428 284.3 432 320 432.5C355.7 433 391.3 430 426.8 426.5C462.3 423 497.7 419 533.2 420C568.7 421 604.3 427 640 427C675.7 427 711.3 421 746.8 418.3C782.3 415.7 817.7 416.3 853.2 420.7C888.7 425 924.3 433 942.2 437L960 441L960 541L942.2 541C924.3 541 888.7 541 853.2 541C817.7 541 782.3 541 746.8 541C711.3 541 675.7 541 640 541C604.3 541 568.7 541 533.2 541C497.7 541 462.3 541 426.8 541C391.3 541 355.7 541 320 541C284.3 541 248.7 541 213.2 541C177.7 541 142.3 541 106.8 541C71.3 541 35.7 541 17.8 541L0 541Z" fill="#59718f"></path><path d="M0 448L17.8 451C35.7 454 71.3 460 106.8 461.7C142.3 463.3 177.7 460.7 213.2 459C248.7 457.3 284.3 456.7 320 458.8C355.7 461 391.3 466 426.8 467.7C462.3 469.3 497.7 467.7 533.2 463.7C568.7 459.7 604.3 453.3 640 453.2C675.7 453 711.3 459 746.8 463.2C782.3 467.3 817.7 469.7 853.2 469.3C888.7 469 924.3 466 942.2 464.5L960 463L960 541L942.2 541C924.3 541 888.7 541 853.2 541C817.7 541 782.3 541 746.8 541C711.3 541 675.7 541 640 541C604.3 541 568.7 541 533.2 541C497.7 541 462.3 541 426.8 541C391.3 541 355.7 541 320 541C284.3 541 248.7 541 213.2 541C177.7 541 142.3 541 106.8 541C71.3 541 35.7 541 17.8 541L0 541Z" fill="#355663"></path><path d="M0 502L17.8 500C35.7 498 71.3 494 106.8 492.5C142.3 491 177.7 492 213.2 491.8C248.7 491.7 284.3 490.3 320 491.5C355.7 492.7 391.3 496.3 426.8 498.3C462.3 500.3 497.7 500.7 533.2 498.8C568.7 497 604.3 493 640 492.3C675.7 491.7 711.3 494.3 746.8 494C782.3 493.7 817.7 490.3 853.2 488.3C888.7 486.3 924.3 485.7 942.2 485.3L960 485L960 541L942.2 541C924.3 541 888.7 541 853.2 541C817.7 541 782.3 541 746.8 541C711.3 541 675.7 541 640 541C604.3 541 568.7 541 533.2 541C497.7 541 462.3 541 426.8 541C391.3 541 355.7 541 320 541C284.3 541 248.7 541 213.2 541C177.7 541 142.3 541 106.8 541C71.3 541 35.7 541 17.8 541L0 541Z" fill="#24393a"></path></svg>