<svg id="visual" viewBox="0 0 960 540" width="960" height="540" xmlns="http://www.w3.org/2000/svg" xmlns:xlink="http://www.w3.org/1999/xlink" version="1.1"><rect x="0" y="0" width="960" height="540" fill="#24393a"></rect><path d="M0 418L22.8 412C45.7 406 91.3 394 137 393.5C182.7 393 228.3 404 274 394C319.7 384 365.3 353 411.2 353C457 353 503 384 548.8 386.5C594.7 389 640.3 363 686 350.2C731.7 337.3 777.3 337.7 823 351C868.7 364.3 914.3 390.7 937.2 403.8L960 417L960 541L937.2 541C914.3 541 868.7 541 823 541C777.3 541 731.7 541 686 541C640.3 541 594.7 541 548.8 541C503 541 457 541 411.2 541C365.3 541 319.7 541 274 541C228.3 541 182.7 541 137 541C91.3 541 45.7 541 22.8 541L0 541Z" fill="#61b35e"></path><path d="M0 460L22.8 446.8C45.7 433.7 91.3 407.3 137 405C182.7 402.7 228.3 424.3 274 435.2C319.7 446 365.3 446 411.2 437.8C457 429.7 503 413.3 548.8 411.8C594.7 410.3 640.3 423.7 686 430.7C731.7 437.7 777.3 438.3 823 441.2C868.7 444 914.3 449 937.2 451.5L960 454L960 541L937.2 541C914.3 541 868.7 541 823 541C777.3 541 731.7 541 686 541C640.3 541 594.7 541 548.8 541C503 541 457 541 411.2 541C365.3 541 319.7 541 274 541C228.3 541 182.7 541 137 541C91.3 541 45.7 541 22.8 541L0 541Z" fill="#27957a"></path><path d="M0 450L22.8 457.3C45.7 464.7 91.3 479.3 137 478C182.7 476.7 228.3 459.3 274 453.8C319.7 448.3 365.3 454.7 411.2 463.3C457 472 503 483 548.8 483.2C594.7 483.3 640.3 472.7 686 469C731.7 465.3 777.3 468.7 823 468.7C868.7 468.7 914.3 465.3 937.2 463.7L960 462L960 541L937.2 541C914.3 541 868.7 541 823 541C777.3 541 731.7 541 686 541C640.3 541 594.7 541 548.8 541C503 541 457 541 411.2 541C365.3 541 319.7 541 274 541C228.3 541 182.7 541 137 541C91.3 541 45.7 541 22.8 541L0 541Z" fill="#387376"></path></svg>